<svg xmlns="http://www.w3.org/2000/svg" viewBox="0 0 448.8 448.8"><defs/><path fill="#d9ac80" d="M299.2 292.4l-74.8-44 74.8-43.6 74.8-44 74.8 44-74.8 43.6z"/><path fill="#a67e4f" d="M223.6 248v171.6l148.4-86v-84l-72.8 42.8-74.8-44z"/><path fill="#d9ac80" d="M149.6 292.4l74.8-44-74.8-43.6-74.8-44-74.8 44 74.8 43.6z"/><path fill="#643513" d="M224.4 72.8l74.8 44 74.8 44-74.8 44-74.8 43.6-74.8-43.6-74.8-44 74.8-44z"/><g fill="#d9ac80"><path d="M149.6 29.2l74.8 43.6-74.8 44-74.8 44-74.8-44 74.8-44zM299.2 29.2l-74.8 43.6 74.8 44 74.8 44 74.8-44-74.8-44z"/></g><path fill="#926e43" d="M223.6 249.2v170.4l-148.8-86v-85.2l74.8 44z"/><path fill="#8d5122" d="M149.6 116.8l-74.8 44 74.8 44 24 14 50.8-29.6V72.8z"/><path fill="#77411b" d="M224.4 72.8v116.4l50.8 29.6 24-14 74.8-44-74.8-44z"/></svg>